{"title":"Glastonbury 2016 - The 1975","uid":15449565,"size":1093501275,"categoryP":"video","categoryS":"hd___tv_shows","magnet":"?xt=urn:btih:cfface2e415eccba879e1e1ef927e563b23ba4c2&amp;dn=Glastonbury+2016+-+The+1975&amp;tr=udp%3A%2F%2Ftracker.leechers-paradise.org%3A6969&amp;tr=udp%3A%2F%2Fzer0day.ch%3A1337&amp;tr=udp%3A%2F%2Fopen.demonii.com%3A1337&amp;tr=udp%3A%2F%2Ftracker.coppersurfer.tk%3A6969&amp;tr=udp%3A%2F%2Fexodus.desync.com%3A6969","seeders":2,"leechers":0,"uploader":"RoaElson","files":2,"time":1469929524,"description":"Glastonbury 2016: The 1975\r\n\r\nThe hugely popular group get the crowd moving with their blend of ethereal 80s alt-rock.\r\n\r\nBroadcast: 25 June 2016\r\nDuration: 1 hour, 1 minute\r\n\r\nPlaylist:\r\n\r\nLove Me \r\nUgh! \r\nHeart Out \r\nA Change Of Heart \r\nShe’s American \r\nSomebody Else \r\nLoving Someone \r\nYou \r\nGirls\r\nIf I Believe You \r\nChocolate \r\nThe Sound \r\nSex\r\n\r\n\r\nMedia Info:-\r\n\r\nGeneral\r\nFormat : MPEG-4\r\nFormat profile : Base Media\r\nCodec ID : isom (isom/iso2/avc1/mp41)\r\nFile size : 1.02 GiB\r\nDuration : 1h 0mn\r\nOverall bit rate mode : Variable\r\nOverall bit rate : 2 405 Kbps\r\n\r\nVideo\r\nID : 1\r\nFormat : AVC\r\nFormat/Info : Advanced Video Codec\r\nFormat profile :   \r\nFormat settings, CABAC : Yes\r\nFormat settings, ReFrames : 2 frames\r\nCodec ID : avc1\r\nCodec ID/Info : Advanced Video Coding\r\nDuration : 1h 0mn\r\nBit rate mode : Variable\r\nBit rate : 2 306 Kbps\r\nMaximum bit rate : 3 500 Kbps\r\nWidth : 1 280 pixels\r\nHeight : 720 pixels\r\nDisplay aspect ratio : 16:9\r\nFrame rate mode : Constant\r\nFrame rate : 25.000 fps\r\nColor space : YUV\r\nChroma subsampling : 4:2:0\r\nBit depth : 8 bits\r\nScan type : Progressive\r\nBits/(Pixel*Frame) : 0.100\r\nStream size : 999 MiB (96%)\r\n\r\nAudio\r\nID : 2\r\nFormat : AAC\r\nFormat/Info : Advanced Audio Codec\r\nFormat profile : LC\r\nCodec ID : 40\r\nDuration : 1h 0mn\r\nBit rate mode : Constant\r\nBit rate : 93.5 Kbps\r\nChannel(s) : 2 channels\r\nChannel positions : Front: L R\r\nSampling rate : 48.0 KHz\r\nFrame rate : 46.875 fps (1024 spf)\r\nCompression mode : Lossy\r\nStream size : 40.5 MiB (4%)\r\nDefault : Yes\r\nAlternate group : 1","torrent":{"xt":"urn:btih:cfface2e415eccba879e1e1ef927e563b23ba4c2","amp;dn":"Glastonbury+2016+-+The+1975","amp;tr":["udp%3A%2F%2Ftracker.leechers-paradise.org%3A6969","udp%3A%2F%2Fzer0day.ch%3A1337","udp%3A%2F%2Fopen.demonii.com%3A1337","udp%3A%2F%2Ftracker.coppersurfer.tk%3A6969","udp%3A%2F%2Fexodus.desync.com%3A6969"],"infoHash":"cfface2e415eccba879e1e1ef927e563b23ba4c2","infoHashBuffer":{"type":"Buffer","data":[207,250,206,46,65,94,204,186,135,158,30,30,249,39,229,99,178,59,164,194]},"announce":[],"urlList":[]}}